<svg width="11" height="16" viewBox="0 0 11 16" fill="none" xmlns="http://www.w3.org/2000/svg">
<path d="M5.08659 0.972046C2.29491 0.972046 0 3.09318 0 6.11881C0 7.19855 0.261026 7.94969 0.74587 8.78155L4.74422 15.6439C4.77807 15.7035 4.82767 15.7531 4.88788 15.7877C4.94809 15.8223 5.0167 15.8405 5.08659 15.8405C5.15648 15.8405 5.22509 15.8223 5.2853 15.7877C5.3455 15.7531 5.39511 15.7035 5.42896 15.6439L9.42731 8.78155C9.91216 7.94967 10.1732 7.19855 10.1732 6.11881C10.1732 3.09318 7.87827 0.972046 5.08659 0.972046ZM5.08659 1.73453C7.48121 1.73453 9.39062 3.45948 9.39062 6.11881C9.39062 7.08797 9.19761 7.63603 8.74869 8.40628L5.08659 14.6848L1.42449 8.40628C0.975572 7.63605 0.782552 7.08797 0.782552 6.11881C0.782552 3.45948 2.69197 1.73453 5.08659 1.73453ZM5.08659 3.2595C3.57855 3.2595 2.34766 4.45883 2.34766 5.92819C2.34766 7.39754 3.57855 8.5969 5.08659 8.5969C6.59463 8.5969 7.82552 7.39754 7.82552 5.92819C7.82552 4.45883 6.59462 3.2595 5.08659 3.2595ZM5.08659 4.02198C6.1717 4.02198 7.04297 4.87091 7.04297 5.92819C7.04297 6.98545 6.1717 7.8344 5.08659 7.8344C4.00148 7.8344 3.13021 6.98545 3.13021 5.92819C3.13021 4.87091 4.00147 4.02198 5.08659 4.02198Z" fill="#262626"/>
</svg>
