<svg width="20" height="21" viewBox="0 0 20 21" fill="none" xmlns="http://www.w3.org/2000/svg">
<g clip-path="url(#clip0_1_16922)">
<path d="M9.9462 17.2162C9.80322 17.2162 9.65963 17.1671 9.54339 17.0683C9.39295 16.9402 5.84971 13.898 4.37149 10.5798C4.23163 10.2665 4.37274 9.89847 4.68666 9.75923C4.99933 9.61998 5.36733 9.76047 5.5072 10.0744C6.5882 12.5018 8.97398 14.8603 9.93563 15.7498C11.6327 14.1025 14.9192 10.4213 14.9192 8.03485C14.9192 5.21393 12.6882 2.9189 9.9462 2.9189C7.20422 2.9189 4.97322 5.21393 4.97322 8.03485C4.97322 8.37798 4.69474 8.65647 4.3516 8.65647C4.00847 8.65647 3.72998 8.37798 3.72998 8.03485C3.72998 4.52828 6.51857 1.67566 9.9462 1.67566C13.3738 1.67566 16.1624 4.52828 16.1624 8.03485C16.1624 11.7099 10.6026 16.8364 10.3658 17.0533C10.2471 17.1615 10.0966 17.2162 9.9462 17.2162Z" fill="#171717"/>
<path d="M9.9462 10.3784C8.57491 10.3784 7.45972 9.26318 7.45972 7.89188C7.45972 6.52058 8.57491 5.4054 9.9462 5.4054C11.3175 5.4054 12.4327 6.52058 12.4327 7.89188C12.4327 9.26318 11.3175 10.3784 9.9462 10.3784ZM9.9462 6.64864C9.26055 6.64864 8.70296 7.20623 8.70296 7.89188C8.70296 8.57753 9.26055 9.13513 9.9462 9.13513C10.6319 9.13513 11.1894 8.57753 11.1894 7.89188C11.1894 7.20623 10.6319 6.64864 9.9462 6.64864Z" fill="#171717"/>
<path d="M18.0272 19.0811H1.86503C1.64374 19.0811 1.4386 18.9636 1.32733 18.7715C1.21606 18.5794 1.21544 18.3438 1.32546 18.1511L3.81195 13.7998C3.98228 13.502 4.36209 13.3976 4.65984 13.5685C4.9576 13.7389 5.06141 14.1187 4.89109 14.4164L2.93609 17.8378H16.9555L15.0005 14.4164C14.8302 14.1187 14.934 13.7389 15.2318 13.5685C15.5295 13.397 15.9093 13.502 16.0797 13.7998L18.5661 18.1511C18.6762 18.3438 18.6755 18.5794 18.5643 18.7715C18.4536 18.9636 18.2485 19.0811 18.0272 19.0811Z" fill="#171717"/>
</g>
<defs>
<clipPath id="clip0_1_16922">
<rect width="19.8919" height="19.8919" fill="white" transform="translate(0 0.432434)"/>
</clipPath>
</defs>
</svg>
