<svg width="68" height="89" viewBox="0 0 68 89" fill="none" xmlns="http://www.w3.org/2000/svg">
<path d="M16.7813 23.1163C16.7813 15.6368 22.8665 9.55179 30.346 9.55179C37.8254 9.55179 43.9106 15.6368 43.9106 23.1163V35.1791C46.6686 35.6045 49.3838 36.0599 51.69 36.4609V23.1163C51.6896 11.3473 42.1148 1.77246 30.3458 1.77246C18.5768 1.77246 9.00195 11.3473 9.00195 23.1163V36.4074C11.3274 36.0043 14.0398 35.5513 16.7813 35.1309V23.1163Z" fill="#F7F5F5"/>
<path d="M35.0038 53.3679C35.0038 50.7954 32.9184 48.71 30.3459 48.71C27.7734 48.71 25.688 50.7954 25.688 53.3679C25.688 54.9819 26.5092 56.4039 27.7564 57.2397L26.4045 65.0124H34.2871L33.0367 57.1686C34.2266 56.325 35.0038 54.9377 35.0038 53.3679Z" fill="white"/>
<path d="M34.2872 66.7859H26.4046C25.8812 66.7859 25.3846 66.5547 25.0479 66.1542C24.711 65.7537 24.5683 65.2249 24.658 64.7093L25.8334 57.9504C24.6161 56.7527 23.915 55.11 23.915 53.3684C23.915 49.8225 26.7999 46.9375 30.3458 46.9375C33.8917 46.9375 36.7766 49.8224 36.7766 53.3684C36.7766 55.0589 36.1061 56.6714 34.9425 57.8631L36.038 64.734C36.1195 65.2466 35.9728 65.769 35.6359 66.1639C35.299 66.5584 34.8061 66.7859 34.2872 66.7859ZM28.5124 63.2401H32.2093L31.2859 57.4484C31.1797 56.7823 31.4607 56.1135 32.0109 55.7233C32.7749 55.1815 33.2308 54.3012 33.2308 53.3684C33.2308 51.7776 31.9367 50.4834 30.346 50.4834C28.7553 50.4834 27.4611 51.7776 27.4611 53.3684C27.4611 54.3325 27.9406 55.2293 28.7435 55.7676C29.3254 56.1577 29.6232 56.8539 29.5031 57.5443L28.5124 63.2401Z" fill="black"/>
<path d="M8.38664 46.6269C7.40747 46.6269 6.61377 45.8332 6.61377 44.854V42.5492C6.61377 41.5701 7.40747 40.7764 8.38664 40.7764C9.36582 40.7764 10.1595 41.5701 10.1595 42.5492V44.854C10.1595 45.8332 9.36582 46.6269 8.38664 46.6269Z" fill="black"/>
<path d="M8.38664 59.2374C7.40747 59.2374 6.61377 58.4437 6.61377 57.4646V51.4145C6.61377 50.4353 7.40747 49.6416 8.38664 49.6416C9.36582 49.6416 10.1595 50.4353 10.1595 51.4145V57.4646C10.1595 58.4437 9.36582 59.2374 8.38664 59.2374Z" fill="black"/>
<path fill-rule="evenodd" clip-rule="evenodd" d="M30.3456 0C42.7295 0 52.8706 9.78831 53.4373 22.0347C52.2198 22.1146 51.0395 22.3306 49.9115 22.6677C49.672 12.0828 40.9869 3.54575 30.3456 3.54575C19.5542 3.54575 10.7746 12.3253 10.7746 23.1167V34.3032C12.1218 34.0757 13.5505 33.8409 15.008 33.6107V23.1167C15.008 14.6596 21.8885 7.77916 30.3456 7.77916C38.8027 7.77916 45.6831 14.6596 45.6831 23.1167V24.6464C44.3474 25.5301 43.152 26.6088 42.1376 27.842V23.1167C42.1376 16.6145 36.848 11.3249 30.3458 11.3249C23.8436 11.3249 18.554 16.6147 18.554 23.1167V33.0717C23.1096 32.4078 27.5207 31.8888 30.1799 31.8886H30.1817C32.3662 31.8886 35.7313 32.2379 39.3881 32.7302C39.0022 33.8371 38.7344 34.9995 38.5999 36.2021C35.2134 35.7499 32.1468 35.4345 30.182 35.4345H30.1805C24.3591 35.435 8.85366 38.2092 4.04592 39.096V57.5917C4.04592 62.6244 8.64593 69.0442 17.3486 76.1569C22.7058 80.5354 28.11 83.918 30.1805 85.1666C32.2582 83.9141 37.6937 80.5146 43.0606 76.1279C51.7487 69.0266 56.3409 62.6171 56.3409 57.5917V53.8952C57.5706 53.7544 58.758 53.4741 59.8868 53.0706V57.5917C59.8868 63.8125 54.9683 70.9827 45.2682 78.903C38.252 84.6319 31.351 88.5998 31.0606 88.766C30.7878 88.922 30.484 89 30.1801 89C29.8761 89 29.5721 88.9221 29.2991 88.7657C29.009 88.5997 22.1145 84.6317 15.1045 78.9025C5.4136 70.9824 0.5 63.8123 0.5 57.5919V37.6235C0.5 36.7723 1.10475 36.0413 1.94069 35.882C2.2023 35.8319 4.27433 35.4382 7.22889 34.9162V23.1167C7.22889 10.3701 17.599 0 30.3456 0Z" fill="black"/>
<rect x="40.4625" y="25.9625" width="26.075" height="26.075" rx="13.0375" fill="#F5E100" stroke="black" stroke-width="1.925"/>
<path fill-rule="evenodd" clip-rule="evenodd" d="M59.8886 34.7528C60.0865 34.9342 60.0998 35.2417 59.9184 35.4396L52.7888 43.2174C52.6992 43.3151 52.5736 43.372 52.441 43.3749C52.3085 43.3778 52.1805 43.3264 52.0867 43.2326L48.846 39.9919C48.6562 39.802 48.6562 39.4943 48.846 39.3044C49.0358 39.1146 49.3436 39.1146 49.5335 39.3044L52.4152 42.1862L59.2018 34.7826C59.3832 34.5847 59.6907 34.5714 59.8886 34.7528Z" fill="#171717" stroke="#171717" stroke-width="0.864197" stroke-linecap="round" stroke-linejoin="round"/>
</svg>
