<svg width="70" height="70" viewBox="0 0 70 70" fill="none" xmlns="http://www.w3.org/2000/svg">
<g clip-path="url(#clip0_1_18210)">
<path d="M58 34.6667C58 32.0894 55.9107 30 53.3333 30H6.66667C4.08934 30 2 32.0894 2 34.6667V62.6667C2 65.2441 4.08934 67.3333 6.66667 67.3333H53.3333C55.9107 67.3333 58 65.2441 58 62.6667M16 30V16C16 8.26803 22.268 2 30 2C37.732 2 44 8.26803 44 16V30" stroke="black" stroke-width="4.66667"/>
<path d="M55.6667 48.667H60.3333M46.3333 48.667H51M37 48.667H41.6667" stroke="black" stroke-width="4.66667"/>
<path d="M39.6663 39.666H58.333C63.4878 39.666 67.6663 43.8447 67.6663 48.9993C67.6663 54.1541 63.4878 58.3327 58.333 58.3327H39.6663C34.5117 58.3327 30.333 54.1541 30.333 48.9993C30.333 43.8447 34.5117 39.666 39.6663 39.666Z" stroke="#F5E100" stroke-width="4.66667"/>
</g>
<defs>
<clipPath id="clip0_1_18210">
<rect width="70" height="70" fill="white"/>
</clipPath>
</defs>
</svg>
