<svg width="37" height="36" viewBox="0 0 37 36" fill="none" xmlns="http://www.w3.org/2000/svg">
<path d="M19.9925 5.86133C19.3774 5.24626 18.3802 5.24626 17.7651 5.86133L6.74012 16.8863C6.12504 17.5014 6.12504 18.4986 6.74012 19.1137C7.35519 19.7288 8.35243 19.7288 8.9675 19.1137L9.42881 18.6524V29.025C9.42881 29.8949 10.134 30.6 11.0038 30.6H14.1538C15.0237 30.6 15.7288 29.8949 15.7288 29.025V25.875C15.7288 25.0052 16.434 24.3 17.3038 24.3H20.4538C21.3237 24.3 22.0288 25.0052 22.0288 25.875V29.025C22.0288 29.8949 22.734 30.6 23.6038 30.6H26.7538C27.6237 30.6 28.3288 29.8949 28.3288 29.025V18.6524L28.7901 19.1137C29.4052 19.7288 30.4024 19.7288 31.0175 19.1137C31.6326 18.4986 31.6326 17.5014 31.0175 16.8863L19.9925 5.86133Z" fill="black"/>
</svg>
