<svg width="37" height="36" viewBox="0 0 37 36" fill="none" xmlns="http://www.w3.org/2000/svg">
<path d="M6.27881 17.9999L9.07881 15.1999M9.07881 15.1999L18.8788 5.3999L28.6788 15.1999M9.07881 15.1999V29.1999C9.07881 29.9731 9.70561 30.5999 10.4788 30.5999H14.6788M28.6788 15.1999L31.4788 17.9999M28.6788 15.1999V29.1999C28.6788 29.9731 28.052 30.5999 27.2788 30.5999H23.0788M14.6788 30.5999C15.452 30.5999 16.0788 29.9731 16.0788 29.1999V23.5999C16.0788 22.8267 16.7056 22.1999 17.4788 22.1999H20.2788C21.052 22.1999 21.6788 22.8267 21.6788 23.5999V29.1999C21.6788 29.9731 22.3056 30.5999 23.0788 30.5999M14.6788 30.5999H23.0788" stroke="#171717" stroke-width="1.67" stroke-linecap="round" stroke-linejoin="round"/>
</svg>
