<svg width="37" height="36" viewBox="0 0 37 36" fill="none" xmlns="http://www.w3.org/2000/svg">
<path d="M5.52124 8.55002C5.52124 6.81033 6.93154 5.40002 8.67124 5.40002H11.8212C13.5609 5.40002 14.9712 6.81033 14.9712 8.55002V11.7C14.9712 13.4397 13.5609 14.85 11.8212 14.85H8.67124C6.93154 14.85 5.52124 13.4397 5.52124 11.7V8.55002Z" stroke="#171717" stroke-width="2.004" stroke-linecap="round" stroke-linejoin="round"/>
<path d="M21.2712 8.55002C21.2712 6.81033 22.6815 5.40002 24.4212 5.40002H27.5712C29.3109 5.40002 30.7212 6.81033 30.7212 8.55002V11.7C30.7212 13.4397 29.3109 14.85 27.5712 14.85H24.4212C22.6815 14.85 21.2712 13.4397 21.2712 11.7V8.55002Z" stroke="#171717" stroke-width="2.004" stroke-linecap="round" stroke-linejoin="round"/>
<path d="M5.52124 24.3C5.52124 22.5603 6.93154 21.15 8.67124 21.15H11.8212C13.5609 21.15 14.9712 22.5603 14.9712 24.3V27.45C14.9712 29.1897 13.5609 30.6 11.8212 30.6H8.67124C6.93154 30.6 5.52124 29.1897 5.52124 27.45V24.3Z" stroke="#171717" stroke-width="2.004" stroke-linecap="round" stroke-linejoin="round"/>
<path d="M21.2712 24.3C21.2712 22.5603 22.6815 21.15 24.4212 21.15H27.5712C29.3109 21.15 30.7212 22.5603 30.7212 24.3V27.45C30.7212 29.1897 29.3109 30.6 27.5712 30.6H24.4212C22.6815 30.6 21.2712 29.1897 21.2712 27.45V24.3Z" stroke="#171717" stroke-width="2.004" stroke-linecap="round" stroke-linejoin="round"/>
</svg>
