<svg width="37" height="36" viewBox="0 0 37 36" fill="none" xmlns="http://www.w3.org/2000/svg">
<path d="M9.1213 5.40002C7.13308 5.40002 5.5213 7.0118 5.5213 9.00002V12.6C5.5213 14.5883 7.13308 16.2 9.1213 16.2H12.7213C14.7095 16.2 16.3213 14.5883 16.3213 12.6V9.00002C16.3213 7.0118 14.7095 5.40002 12.7213 5.40002H9.1213Z" fill="#171717"/>
<path d="M9.1213 19.8C7.13308 19.8 5.5213 21.4118 5.5213 23.4V27C5.5213 28.9883 7.13308 30.6 9.1213 30.6H12.7213C14.7095 30.6 16.3213 28.9883 16.3213 27V23.4C16.3213 21.4118 14.7095 19.8 12.7213 19.8H9.1213Z" fill="#171717"/>
<path d="M19.9213 9.00002C19.9213 7.0118 21.5331 5.40002 23.5213 5.40002H27.1213C29.1095 5.40002 30.7213 7.0118 30.7213 9.00002V12.6C30.7213 14.5883 29.1095 16.2 27.1213 16.2H23.5213C21.5331 16.2 19.9213 14.5883 19.9213 12.6V9.00002Z" fill="#171717"/>
<path d="M19.9213 23.4C19.9213 21.4118 21.5331 19.8 23.5213 19.8H27.1213C29.1095 19.8 30.7213 21.4118 30.7213 23.4V27C30.7213 28.9883 29.1095 30.6 27.1213 30.6H23.5213C21.5331 30.6 19.9213 28.9883 19.9213 27V23.4Z" fill="#171717"/>
</svg>
