<svg width="41" height="40" viewBox="0 0 41 40" fill="none" xmlns="http://www.w3.org/2000/svg">
<path d="M30.5049 24.6444C30.0958 21.5978 27.4792 19.2411 24.3229 19.2411H18.9637C19.0525 19.0372 19.1333 18.8284 19.2038 18.6147C19.2965 18.335 19.3431 18.0428 19.3431 17.7463C19.3431 17.5216 19.3163 17.2965 19.2638 17.0738C19.9065 16.6482 20.5631 16.1056 21.1826 15.4867C22.1273 14.5414 22.8886 13.5153 23.3256 12.5973C23.9797 11.223 23.7109 10.5287 23.3707 10.188C23.03 9.84774 22.3351 9.57844 20.9609 10.2326C20.8186 10.3 20.6732 10.3764 20.5265 10.4597C20.519 9.31805 20.1828 8.5816 19.5455 8.34999C18.1876 7.8585 16.5698 10.1041 15.6731 12.5775C15.4261 13.2584 15.2356 13.9512 15.1136 14.6044C12.3408 14.9392 10.0743 16.7385 9.20091 19.3799C9.10814 19.6596 9.06155 19.9517 9.06155 20.2483C9.06155 21.51 9.88285 22.6854 11.0468 23.1888C10.7587 23.9154 10.6129 24.6836 10.6129 25.4796C10.6129 26.4258 10.8247 27.3473 11.2298 28.187H10.1294C9.15582 28.187 8.36377 28.979 8.36377 29.9526C8.36377 30.9256 9.15582 31.7176 10.1294 31.7176L24.323 31.7182C25.9889 31.7182 27.5551 31.0695 28.7344 29.8911C29.0573 29.5677 29.34 29.2156 29.5805 28.8401C29.7829 28.9016 29.9941 28.9349 30.2079 28.9349C31.3967 28.9349 32.3638 27.9678 32.3638 26.7795C32.3638 25.6914 31.5534 24.7898 30.5049 24.6444ZM16.6055 12.9157C17.5731 10.247 18.867 9.15938 19.2067 9.28238C19.3644 9.33943 19.6283 9.86808 19.5003 11.1338C19.0197 11.4923 18.5362 11.9119 18.072 12.3761C17.3648 13.0829 16.7646 13.8298 16.3193 14.5533C16.2716 14.5504 16.1497 14.5474 16.1357 14.5474C16.2479 14.0182 16.4066 13.4637 16.6055 12.9157ZM28.9209 28.0099C28.6848 28.4374 28.3873 28.8347 28.0327 29.1898C27.0413 30.1807 25.724 30.7262 24.323 30.7262H18.8715V30.7257C18.4449 30.7257 18.0978 30.379 18.0978 29.9525C18.0978 29.5255 18.4449 29.1789 18.8715 29.1789H21.1161C21.3899 29.1789 21.6121 28.9567 21.6121 28.6829V27.8428C21.6121 26.4586 22.7378 25.3328 24.1221 25.3328H24.7777C25.0515 25.3328 25.2736 25.1106 25.2736 24.8368C25.2736 24.5626 25.0515 24.3409 24.7777 24.3409H24.1221C22.1908 24.3409 20.6202 25.9116 20.6202 27.8428V28.187H18.8715C17.8979 28.187 17.1059 28.979 17.1059 29.9526C17.1059 30.2298 17.1703 30.4921 17.2849 30.7258H10.1294C9.70285 30.7258 9.35569 30.3791 9.35569 29.9526C9.35569 29.5255 9.70285 29.1789 10.1294 29.1789H12.0849C12.1801 29.1789 12.2763 29.1516 12.3616 29.0941C12.5888 28.9413 12.6488 28.6329 12.496 28.4057C11.9128 27.5403 11.6048 26.5281 11.6048 25.4796C11.6048 24.6474 11.7938 23.8514 12.1667 23.1144C12.2907 22.8704 12.1925 22.5719 11.9485 22.4479C11.9103 22.429 11.8711 22.4156 11.8314 22.4067C11.333 22.2961 10.8886 22.004 10.5688 21.6157C10.2489 21.2274 10.0535 20.7428 10.0535 20.2483C10.0535 20.0579 10.0832 19.8699 10.1427 19.6909C10.5533 18.4495 11.3241 17.404 12.3715 16.6676C13.4225 15.9296 14.6971 15.5393 16.0584 15.5393C16.0936 15.5393 16.3838 15.5522 16.4944 15.572C16.7077 15.6097 16.913 15.5051 17.0131 15.3265L17.0137 15.3271C17.4213 14.604 18.0462 13.805 18.7733 13.0774C19.2554 12.5954 19.7558 12.1679 20.2458 11.8162C20.2562 11.8093 20.2661 11.8023 20.2756 11.7949C20.6574 11.5226 21.0329 11.2969 21.3875 11.1283C22.1433 10.7687 22.5683 10.7881 22.669 10.8893C22.7701 10.9904 22.79 11.415 22.4299 12.1713C22.0401 12.9896 21.3482 13.918 20.4813 14.7849C19.8366 15.4297 19.1527 15.9822 18.4985 16.3864L18.503 16.3938C18.3051 16.4692 18.1836 16.6577 18.1836 16.8576C18.1836 16.9161 18.194 16.9756 18.2158 17.0336C18.3056 17.2697 18.3512 17.5092 18.3512 17.7463C18.3512 17.9368 18.321 18.1247 18.2619 18.3038C18.1241 18.7214 17.9446 19.1186 17.7283 19.4856C17.5894 19.7217 17.6683 20.0257 17.9044 20.1646C17.9832 20.2112 18.07 20.233 18.1553 20.233H24.323C27.2159 20.233 29.5691 22.5868 29.5691 25.4797C29.5691 26.7071 28.9283 27.9941 28.9209 28.0099ZM30.2079 27.943C30.1588 27.943 30.1097 27.9395 30.0611 27.9336C30.3646 27.2243 30.5342 26.4596 30.558 25.669C31.0291 25.8183 31.3718 26.2592 31.3718 26.7795C31.3718 27.4213 30.8496 27.943 30.2079 27.943Z" fill="#171717" stroke="#171717" stroke-width="0.5"/>
<path d="M13.1594 19.0775C13.4914 19.0775 13.7605 18.8084 13.7605 18.4764C13.7605 18.1445 13.4914 17.8754 13.1594 17.8754C12.8275 17.8754 12.5583 18.1445 12.5583 18.4764C12.5583 18.8084 12.8275 19.0775 13.1594 19.0775Z" fill="#171717"/>
<path d="M24.3226 20.9769C24.0488 20.9769 23.8267 21.199 23.8267 21.4729C23.8267 21.7467 24.0488 21.9688 24.3226 21.9688C26.2584 21.9688 27.8333 23.5437 27.8333 25.4795C27.8333 25.7533 28.0554 25.9754 28.3292 25.9754C28.6031 25.9754 28.8252 25.7533 28.8252 25.4795C28.8252 22.9968 26.8054 20.9769 24.3226 20.9769Z" fill="#171717"/>
</svg>
