<svg width="37" height="36" viewBox="0 0 37 36" fill="none" xmlns="http://www.w3.org/2000/svg">
<path d="M30.0453 24.4976C30.0199 25.3909 29.8267 26.2714 29.4756 27.0932C29.531 27.1006 29.5868 27.1042 29.6427 27.1041C29.9592 27.1005 30.2643 26.9846 30.5034 26.7771C30.7425 26.5697 30.9002 26.2841 30.9485 25.9712C30.9967 25.6583 30.9323 25.3384 30.7668 25.0686C30.6012 24.7987 30.3453 24.5964 30.0445 24.4976H30.0453Z" fill="#171717" stroke="#171717" stroke-width="0.0529071"/>
<path d="M13.5107 11.7472C13.5266 11.7472 13.6661 11.7472 13.7213 11.7539C14.2914 10.8475 14.9642 10.0098 15.7263 9.25765C16.2374 8.74564 16.7846 8.27101 17.3637 7.83742C17.5099 6.38628 17.2075 5.78059 17.0296 5.71543C16.6428 5.57006 15.1599 6.81652 14.0488 9.8767C13.827 10.4872 13.6472 11.1122 13.5107 11.7472Z" fill="#171717" stroke="#171717" stroke-width="0.0529071"/>
<path d="M22.8975 18.2652H15.8281C15.7279 18.2651 15.6295 18.2385 15.5429 18.1882C15.4563 18.1378 15.3845 18.0655 15.3349 17.9785C15.2853 17.8914 15.2596 17.7928 15.2603 17.6926C15.2611 17.5924 15.2884 17.4943 15.3394 17.408C15.5908 16.9797 15.7955 16.5257 15.9501 16.0538C16.0187 15.8477 16.0537 15.6319 16.0537 15.4147C16.0516 15.1352 15.999 14.8584 15.8983 14.5976C15.8736 14.5331 15.8611 14.4645 15.8615 14.3954C15.8613 14.2802 15.8962 14.1676 15.9616 14.0727C16.0269 13.9778 16.1197 13.905 16.2274 13.8641L16.2216 13.8549C17.0471 13.3312 17.8098 12.7145 18.4948 12.017C19.4873 11.0287 20.2793 9.96099 20.7262 9.02364C21.1389 8.15646 21.1172 7.67024 21.0011 7.55412C20.8849 7.43799 20.3979 7.41544 19.5315 7.82814C19.0851 8.04526 18.6585 8.30105 18.2567 8.59256L18.2233 8.61679C17.6218 9.05212 17.0569 9.53576 16.534 10.0629C15.6986 10.8983 14.986 11.8115 14.5173 12.641C14.4595 12.744 14.3711 12.8264 14.2644 12.8768C14.1576 12.9273 14.0379 12.9433 13.9216 12.9226C13.7955 12.9 13.4622 12.885 13.4204 12.885C11.859 12.885 10.3978 13.3328 9.19394 14.1782C7.99004 15.0269 7.09343 16.2427 6.63837 17.6436C6.57024 17.8498 6.53582 18.0656 6.53644 18.2827C6.54621 18.8577 6.75493 19.4115 7.12709 19.85C7.49561 20.3043 8.00456 20.6234 8.57406 20.7572C8.62089 20.7677 8.66632 20.7837 8.7094 20.8049C8.8436 20.8732 8.94531 20.9919 8.99227 21.1349C9.03923 21.278 9.02764 21.4339 8.96002 21.5684C8.47908 22.5221 8.2605 23.5865 8.32671 24.6525C8.39292 25.7185 8.74154 26.7477 9.3368 27.6345C9.39459 27.7199 9.42803 27.8195 9.43354 27.9224C9.43905 28.0254 9.41642 28.128 9.36807 28.2191C9.31973 28.3102 9.2475 28.3864 9.15914 28.4396C9.07077 28.4927 8.96959 28.5208 8.86646 28.5209H6.62416C6.39368 28.528 6.175 28.6245 6.01447 28.79C5.85394 28.9556 5.76416 29.1771 5.76416 29.4077C5.76416 29.6383 5.85394 29.8598 6.01447 30.0254C6.175 30.1909 6.39368 30.2874 6.62416 30.2945H14.8256C14.6907 30.0186 14.6212 29.7153 14.6226 29.4081C14.6232 28.8713 14.8368 28.3567 15.2165 27.9772C15.5961 27.5977 16.1108 27.3843 16.6476 27.3839H18.6527V26.9895C18.654 25.9253 19.0774 24.905 19.8299 24.1525C20.5824 23.4 21.6027 22.9766 22.6669 22.9753H23.4188C23.4953 22.9724 23.5716 22.9849 23.6431 23.0122C23.7147 23.0394 23.78 23.0808 23.8351 23.1339C23.8903 23.187 23.9341 23.2506 23.9641 23.3211C23.9941 23.3915 24.0095 23.4673 24.0095 23.5438C24.0095 23.6204 23.9941 23.6961 23.9641 23.7666C23.9341 23.837 23.8903 23.9007 23.8351 23.9537C23.78 24.0068 23.7147 24.0482 23.6431 24.0755C23.5716 24.1027 23.4953 24.1153 23.4188 24.1123H22.6669C21.904 24.1132 21.1725 24.4167 20.6331 24.9563C20.0937 25.4959 19.7904 26.2274 19.7897 26.9904V27.9536C19.7895 28.1044 19.7294 28.2489 19.6228 28.3554C19.5161 28.4619 19.3715 28.5217 19.2208 28.5217H16.6476C16.5289 28.5181 16.4106 28.5383 16.2998 28.5812C16.1891 28.6242 16.088 28.6889 16.0028 28.7716C15.9175 28.8543 15.8497 28.9533 15.8034 29.0627C15.7571 29.1721 15.7332 29.2897 15.7332 29.4085C15.7332 29.5273 15.7571 29.6449 15.8034 29.7543C15.8497 29.8637 15.9175 29.9627 16.0028 30.0454C16.088 30.1282 16.1891 30.1929 16.2998 30.2358C16.4106 30.2787 16.5289 30.299 16.6476 30.2953H22.8975C23.6876 30.2974 24.4702 30.1427 25.2001 29.8403C25.93 29.5379 26.5927 29.0937 27.1498 28.5334C27.5509 28.1324 27.8937 27.6771 28.1682 27.1809C28.1766 27.1625 28.9117 25.6871 28.9117 24.2802C28.91 22.6856 28.2758 21.1568 27.1483 20.0292C26.0208 18.9015 24.4921 18.2671 22.8975 18.2652Z" fill="#171717" stroke="#171717" stroke-width="0.0529071"/>
</svg>
