<svg width="24" height="25" viewBox="0 0 24 25" fill="none" xmlns="http://www.w3.org/2000/svg">
<path d="M19.3753 24.4893H4.62433C3.40177 24.4893 2.22928 24.0037 1.36479 23.1392C0.50031 22.2747 0.0146484 21.1022 0.0146484 19.8796V6.97253C0.0146484 6.72802 0.111781 6.49352 0.284677 6.32063C0.457574 6.14773 0.692072 6.0506 0.936585 6.0506H19.3753C20.5979 6.0506 21.7704 6.53626 22.6348 7.40074C23.4993 8.26523 23.985 9.43772 23.985 10.6603V19.8796C23.985 21.1022 23.4993 22.2747 22.6348 23.1392C21.7704 24.0037 20.5979 24.4893 19.3753 24.4893ZM1.85852 7.89447V19.8796C1.85852 20.6132 2.14992 21.3167 2.66861 21.8354C3.1873 22.3541 3.89079 22.6455 4.62433 22.6455H19.3753C20.1088 22.6455 20.8123 22.3541 21.331 21.8354C21.8497 21.3167 22.1411 20.6132 22.1411 19.8796V10.6603C22.1411 9.92674 21.8497 9.22325 21.331 8.70456C20.8123 8.18587 20.1088 7.89447 19.3753 7.89447H1.85852Z" fill="#262626"/>
<path d="M21.2193 7.89447C20.9748 7.89447 20.7403 7.79733 20.5674 7.62444C20.3945 7.45154 20.2973 7.21704 20.2973 6.97253V4.43721C20.315 4.11424 20.2595 3.79146 20.135 3.49294C20.0105 3.19442 19.8202 2.92787 19.5782 2.71319C19.3608 2.55033 19.1092 2.43913 18.8425 2.38801C18.5757 2.33689 18.3008 2.3472 18.0386 2.41817L2.57773 5.93074C2.36976 5.97758 2.18445 6.09504 2.05333 6.26313C1.92222 6.43123 1.85341 6.63956 1.85862 6.85268C1.85862 7.09719 1.76149 7.33169 1.58859 7.50459C1.4157 7.67748 1.1812 7.77462 0.936687 7.77462C0.692174 7.77462 0.457676 7.67748 0.284779 7.50459C0.111883 7.33169 0.0147504 7.09719 0.0147504 6.85268C0.00934095 6.22244 0.219348 5.60925 0.609998 5.11465C1.00065 4.62005 1.54851 4.2737 2.16286 4.13297L17.6329 0.620391C18.165 0.485858 18.7208 0.474902 19.2577 0.588363C19.7947 0.701824 20.2985 0.93669 20.7307 1.27497C21.1876 1.66277 21.5516 2.14827 21.7957 2.6956C22.0399 3.24293 22.1579 3.83812 22.1412 4.43721V6.97253C22.1412 7.21704 22.0441 7.45154 21.8712 7.62444C21.6983 7.79733 21.4638 7.89447 21.2193 7.89447Z" fill="#262626"/>
<path d="M23.0629 18.9577H16.6094C15.6313 18.9577 14.6933 18.5692 14.0017 17.8776C13.3102 17.186 12.9216 16.248 12.9216 15.27C12.9216 14.2919 13.3102 13.3539 14.0017 12.6623C14.6933 11.9707 15.6313 11.5822 16.6094 11.5822H23.0629C23.3074 11.5822 23.5419 11.6793 23.7148 11.8522C23.8877 12.0251 23.9849 12.2596 23.9849 12.5042V18.0358C23.9849 18.2803 23.8877 18.5148 23.7148 18.6877C23.5419 18.8606 23.3074 18.9577 23.0629 18.9577ZM16.6094 13.4261C16.1204 13.4261 15.6514 13.6204 15.3056 13.9661C14.9598 14.3119 14.7655 14.7809 14.7655 15.27C14.7655 15.759 14.9598 16.228 15.3056 16.5738C15.6514 16.9196 16.1204 17.1138 16.6094 17.1138H22.141V13.4261H16.6094Z" fill="#262626"/>
</svg>
