<svg width="95" height="103" viewBox="0 0 95 103" fill="none" xmlns="http://www.w3.org/2000/svg">
<path d="M45.75 56.1475V60.808M31.7684 70.129H59.7316C62.3055 70.129 64.3921 68.0424 64.3921 65.4685V51.4869C64.3921 48.913 62.3055 46.8264 59.7316 46.8264H31.7684C29.1945 46.8264 27.1079 48.913 27.1079 51.4869V65.4685C27.1079 68.0424 29.1945 70.129 31.7684 70.129ZM55.071 46.8264V37.5054C55.071 32.3575 50.8979 28.1843 45.75 28.1843C40.6021 28.1843 36.429 32.3575 36.429 37.5054V46.8264H55.071Z" stroke="#171717" stroke-width="3.31579" stroke-linecap="round"/>
<path fill-rule="evenodd" clip-rule="evenodd" d="M47.3257 1.21966C50.9804 4.47298 55.4088 6.76732 60.1598 8.71899L60.1675 8.72216C63.8895 10.2731 67.6893 11.4291 71.5715 12.2758C70.7038 13.1415 69.9355 14.1069 69.2852 15.1533C65.7734 14.3087 62.3094 13.2065 58.8961 11.7845C54.1822 9.84786 49.5379 7.49181 45.5752 4.09315C44.7851 4.81166 43.8926 5.59161 42.9032 6.24889C33.2278 12.8143 22.2357 15.8362 10.92 17.0624C8.87531 17.2883 6.85053 17.4148 4.85471 17.5395C4.44993 17.5648 4.04633 17.59 3.64401 17.616L3.6542 17.6668L3.66135 17.7204L9.29098 59.887L9.29138 59.89C10.4666 68.8158 13.8709 76.8291 20.0105 83.4646C26.9456 90.8937 35.7322 95.7125 45.4962 99.0579L45.4994 99.059C45.5384 99.0599 45.6056 99.0568 45.7012 99.0422C45.9033 99.0113 46.1291 98.9451 46.3097 98.875C47.3658 98.414 48.4138 97.9701 49.4523 97.5302C52.9538 96.0471 56.3472 94.6098 59.574 92.717L59.5784 92.7144C71.4869 85.7777 79.3976 75.958 81.5145 62.2687L81.5147 62.2677C82.6938 54.6721 83.7319 47.018 84.7499 39.3416C85.9471 39.1964 87.1033 38.9182 88.2033 38.5224C87.1298 46.6329 86.0374 54.7489 84.7914 62.7754C82.4933 77.636 73.8465 88.24 61.2494 95.5784C57.8186 97.5906 54.1582 99.1401 50.6213 100.637L50.6212 100.637L50.6211 100.637C49.6041 101.068 48.5973 101.494 47.6091 101.926L47.5841 101.937L47.5588 101.947C47.1908 102.093 46.7094 102.242 46.2025 102.32C45.7497 102.389 45.0619 102.436 44.3928 102.185C34.2995 98.7231 24.9929 93.6618 17.5848 85.7251L17.58 85.7199C10.9167 78.5201 7.25791 69.8445 6.00417 60.3244L6.00396 60.3229L0.381276 18.2083C0.249572 17.5153 0.249795 16.8374 0.250018 16.1571L0.250037 16.0731V14.533L1.78599 14.4197C2.80086 14.3449 3.78339 14.2836 4.75081 14.2233C6.70062 14.1018 8.58905 13.984 10.5571 13.7665L10.5606 13.7662C21.5395 12.5767 31.9598 9.66966 41.0481 3.50062L41.0554 3.49566L41.0628 3.49079C41.9969 2.87112 42.7893 2.14621 43.6605 1.34931C43.7707 1.24843 43.8823 1.14641 43.9955 1.04329C44.0535 0.919386 44.1251 0.803382 44.2083 0.697349C44.6163 0.176997 45.1989 0.000633344 45.6465 1.77346e-06C45.8848 -0.000334397 46.2288 0.046987 46.5739 0.256881C46.8921 0.450446 47.1899 0.77782 47.3257 1.21966Z" fill="black"/>
<rect x="68.3479" y="12.3926" width="24.9513" height="24.9513" rx="12.4757" fill="#F5E100" stroke="black" stroke-width="2.90132"/>
<path fill-rule="evenodd" clip-rule="evenodd" d="M87.1783 20.6435C87.3752 20.8239 87.3885 21.1298 87.208 21.3267L80.1159 29.0635C80.0268 29.1607 79.9018 29.2173 79.77 29.2202C79.6381 29.2231 79.5108 29.1719 79.4176 29.0787L76.1939 25.855C76.005 25.6662 76.005 25.36 76.1939 25.1711C76.3827 24.9823 76.6889 24.9823 76.8777 25.1711L79.7443 28.0377L86.4951 20.6732C86.6756 20.4763 86.9815 20.463 87.1783 20.6435Z" fill="#171717" stroke="#171717" stroke-width="0.859649" stroke-linecap="round" stroke-linejoin="round"/>
</svg>
