<svg width="76" height="84" viewBox="0 0 76 84" fill="none" xmlns="http://www.w3.org/2000/svg">
<path d="M38.0002 16.3671C27.809 16.3671 19.5178 24.658 19.5178 34.8491C19.5178 36.1573 20.5784 37.2178 21.8866 37.2178C23.1948 37.2178 24.2553 36.1573 24.2553 34.8491C24.2553 27.2702 30.4213 21.1044 38.0004 21.1044C39.3086 21.1044 40.3691 20.0439 40.3691 18.7357C40.369 17.4274 39.3084 16.3671 38.0002 16.3671Z" fill="black"/>
<rect x="48.8186" y="16.5458" width="21.6364" height="21.6364" rx="10.8182" fill="#F5E100"/>
<path d="M61.4082 22.1503V32.364H59.2487V24.2H59.1889L56.8499 25.6662V23.7512L59.3784 22.1503H61.4082Z" fill="#262626"/>
<path fill-rule="evenodd" clip-rule="evenodd" d="M64.9774 46.8909C64.9839 47.3275 65.3235 64.6313 74.2502 68.6627C75.2671 69.1219 75.8258 70.2287 75.5904 71.3196C75.3552 72.4108 74.3906 73.1899 73.2746 73.1899H50.6439C50.1802 75.7417 48.9735 78.1161 47.1275 80.0394C44.6764 82.5934 41.4346 84 37.9998 84C34.5652 84 31.3234 82.5934 28.872 80.0394C27.0263 78.1163 25.8196 75.742 25.3557 73.1899H2.72496C1.60893 73.1899 0.644162 72.4107 0.409318 71.3196C0.174199 70.2287 0.733104 69.1218 1.75003 68.6624C10.677 64.6311 11.0168 47.3272 11.0232 46.8906V35.2818C11.0232 24.1089 17.8507 14.5015 27.5522 10.4107C27.5732 4.66696 32.2515 0 38.0002 0C43.7487 0 48.4272 4.66669 48.4481 10.411C51.1627 11.5556 53.6523 13.1321 55.8302 15.054C54.3057 15.7183 52.9365 16.6725 51.7924 17.8469C47.9991 14.8399 43.2056 13.0423 38.0002 13.0423C25.7371 13.0423 15.7605 23.0189 15.7605 35.2817V46.9052C15.7576 47.2699 15.7019 51.0212 14.7576 55.6355H61.2422C60.2985 51.0256 60.243 47.2808 60.2398 46.9245V39.4373C60.4616 39.4488 60.6849 39.4546 60.9096 39.4546C62.3321 39.4546 63.7001 39.2213 64.9774 38.7907V46.8909ZM66.6425 68.4528C64.7583 66.0752 63.4295 63.2181 62.4911 60.3731H13.5087C12.5703 63.2185 11.2415 66.0755 9.35756 68.4528H66.6425ZM43.487 8.8663C42.7991 6.48464 40.6005 4.73738 38.0002 4.73738C35.4 4.73738 33.2015 6.48478 32.5134 8.8663C34.2856 8.49859 36.1207 8.30492 38.0002 8.30492C39.8796 8.30492 41.7147 8.49873 43.487 8.8663ZM30.2166 73.19C31.2294 76.6563 34.3847 79.263 38.0002 79.263C41.6159 79.263 44.7707 76.6563 45.7835 73.19H30.2166Z" fill="black"/>
</svg>
