<svg width="82" height="90" viewBox="0 0 82 90" fill="none" xmlns="http://www.w3.org/2000/svg">
<path fill-rule="evenodd" clip-rule="evenodd" d="M29.1186 59.8066C29.0404 60.3599 29 60.9252 29 61.5C29 68.1274 34.3726 73.5 41 73.5C47.6274 73.5 53 68.1274 53 61.5C53 60.9252 52.9596 60.3599 52.8815 59.8066H82V86.5C82 88.1569 80.6569 89.5 79 89.5H3C1.34315 89.5 0 88.1569 0 86.5V59.8066H29.1186Z" fill="white"/>
<path fill-rule="evenodd" clip-rule="evenodd" d="M54 59.5C54 66.6797 48.1797 72.5 41 72.5C33.8203 72.5 28 66.6797 28 59.5C28 59.2674 28.0061 59.0362 28.0182 58.8066H0L9.56044 30.5389C9.9726 29.3202 11.1159 28.5 12.4023 28.5H69.5977C70.8842 28.5 72.0274 29.3202 72.4396 30.5389L82 58.8066H53.9818C53.9939 59.0362 54 59.2674 54 59.5Z" fill="white"/>
<path fill-rule="evenodd" clip-rule="evenodd" d="M52.0976 60.4545C52.0976 66.0025 47.129 71.5 41 71.5C34.871 71.5 29.9024 66.0025 29.9024 60.4545C29.9024 60.2748 29.9077 59.0962 29.918 58.9188H9L17.1614 39.0755C17.5132 38.1338 18.4891 37.5 19.5873 37.5H62.4127C63.5109 37.5 64.4868 38.1338 64.8387 39.0755L73 58.9188H52.082C52.0923 59.0962 52.0976 60.2748 52.0976 60.4545Z" fill="#EFEFEF"/>
<path fill-rule="evenodd" clip-rule="evenodd" d="M1.25 59.0123V85.5C1.25 86.4665 2.0335 87.25 3 87.25H79C79.9665 87.25 80.75 86.4665 80.75 85.5V59.0123L71.2554 30.9393C71.015 30.2285 70.3481 29.75 69.5977 29.75H12.4023C11.6519 29.75 10.985 30.2285 10.7446 30.9393L1.25 59.0123Z" stroke="#262626" stroke-width="2.5"/>
<path d="M14 58.5C17.9366 58.5 22.1849 58.5 26.7449 58.5C28.6212 58.5 28.6212 59.8186 28.6212 60.5C28.6212 67.1274 34.1174 72.5 40.8973 72.5C47.6772 72.5 53.1734 67.1274 53.1734 60.5C53.1734 59.8186 53.1734 58.5 55.0496 58.5H80M6.57373 58.5H9H6.57373Z" stroke="#262626" stroke-width="2.5" stroke-linecap="round" stroke-linejoin="round"/>
<path d="M66.0996 5.80273L55 18.2559M40.0996 1.5V18.2559V1.5ZM14 5.80273L25.0996 18.2559L14 5.80273Z" stroke="#F5E100" stroke-width="2.5" stroke-linecap="round" stroke-linejoin="round"/>
</svg>
