<svg width="126" height="113" viewBox="0 0 126 113" fill="none" xmlns="http://www.w3.org/2000/svg">
<mask id="mask0_1_19652" style="mask-type:alpha" maskUnits="userSpaceOnUse" x="0" y="0" width="126" height="113">
<path d="M126 96.6044C122.838 99.2755 120.32 102.453 117.081 103.696C115.316 104.387 112.062 102.161 109.866 100.626C101.432 94.4864 91.1094 91.5037 80.7001 92.1988C72.6557 92.5109 64.9038 95.2986 58.503 100.181C54.0206 103.727 50.3825 108.286 46.0689 112.063C45.3508 112.409 44.5637 112.589 43.7663 112.589C42.9689 112.589 42.1818 112.409 41.4637 112.063C38.194 110.389 35.5997 107.795 37.0427 103.696C37.9024 101.286 39.7444 99.2448 40.7883 96.8808C40.9908 96.3284 41.0696 95.7383 41.0192 95.1521C40.9688 94.566 40.7904 93.998 40.4966 93.4883C33.7884 84.984 26.5121 76.756 20.0495 68.0061C15.6275 61.8302 11.6616 55.3401 8.1834 48.5875C5.95755 44.3814 4.95975 39.5306 3.07162 35.1096C-0.412989 26.943 0.0168302 18.4233 0.0168302 9.8116C0.0168302 -0.565467 5.75799 -1.76282 13.0342 1.84459C18.5531 4.61616 23.62 8.20807 28.0626 12.498C34.6275 18.9502 39.8043 26.6762 43.2751 35.2017C45.4856 40.4362 48.2027 45.4559 50.4132 50.6905C51.8077 54.0255 52.9219 57.4708 53.7443 60.9908C55.571 68.6662 57.1368 76.3415 58.8254 84.0169C83.279 73.3328 104.939 78.2911 126 96.6044ZM14.2162 17.3027C13.6022 18.8378 12.9421 19.7589 12.9882 20.6185C13.1077 22.273 13.4273 23.907 13.9399 25.4847C15.3506 30.7759 17.0886 35.9745 19.1438 41.0503C21.6406 46.2728 24.5243 51.3014 27.7709 56.094C32.3761 63.0939 37.2576 69.9096 42.0163 76.7713L43.7817 75.835C38.9155 54.4207 31.7467 34.0964 14.2162 17.3027Z" fill="#A3A3A3"/>
</mask>
<g mask="url(#mask0_1_19652)">
<rect x="-6.45996" y="-12.9202" width="138.43" height="138.43" rx="35.0688" fill="black"/>
</g>
</svg>
