<svg width="48" height="49" viewBox="0 0 48 49" fill="none" xmlns="http://www.w3.org/2000/svg">
<rect width="48" height="48" rx="14" fill="#DCCB13"/>
<path d="M23.9736 29.9254C28.4408 29.9254 32.0748 25.9046 32.0748 20.9625C32.0748 16.0204 28.4404 12 23.9736 12C19.5064 12 15.8716 16.0208 15.8716 20.9625C15.8716 25.905 19.5064 29.9254 23.9736 29.9254Z" fill="white" fill-opacity="0.37"/>
<path d="M33.3059 28.7496C32.8336 28.6474 32.3477 28.8528 32.0942 29.2639C29.1959 33.9593 24.5229 34.0948 23.9998 34.0948C23.4767 34.0948 18.8041 33.9593 15.9066 29.2654C15.6523 28.8536 15.1652 28.6474 14.6926 28.7514C8.40025 30.1366 6.74098 39.6348 7.23144 47.3472C7.26978 47.947 7.76706 48.4143 8.36798 48.4143H39.6324C40.2333 48.4143 40.731 47.9474 40.7686 47.3472C41.2594 39.626 39.5997 30.1226 33.3059 28.7496Z" fill="white" fill-opacity="0.37"/>
</svg>
